<svg version="1.1" xmlns="http://www.w3.org/2000/svg" viewBox="0 0 1706.9945106789141 4918.075850209263" width="3413.9890213578283" height="9836.151700418526">
  <!-- svg-source:excalidraw -->
  
  <defs>
    <style>
      @font-face {
        font-family: "Virgil";
        src: url("https://excalidraw.com/Virgil.woff2");
      }
      @font-face {
        font-family: "Cascadia";
        src: url("https://excalidraw.com/Cascadia.woff2");
      }
    </style>
  </defs>
  <rect x="0" y="0" width="1706.9945106789141" height="4918.075850209263" fill="#ffffff"></rect><g transform="translate(420.0923374720981 35.26498413085824) rotate(0 595.2869960239952 303.8408115931917)"><path d="M0.5201246164739132 -0.26463818773627285 C292.6981727279727 3.7537820278182537, 585.8384179525085 4.905598658181718, 1190.4567083840918 -0.5997400544583797 M0.34321285374462607 0.027663106843829156 C409.0628815018241 4.359775533793094, 818.1278737125257 4.207864906904819, 1190.7498931498926 -0.2779100824147463 M1191.2745178704808 0.6819774366915227 C1191.631340841647 213.29012611660812, 1191.4410686296185 425.7151426248939, 1189.953237367208 608.032427131597 M1190.9447588534754 -0.31553243882954124 C1192.5405570050443 125.87454898284778, 1192.5468181034294 251.58827046494991, 1190.7495162697237 607.6113304702827 M1190.1093342071126 606.9829861754813 C921.8980708042745 610.4841929812293, 654.7005181863484 610.6211887497764, 0.18680564388632775 607.37685922331 M1190.4964785309237 607.6266408531257 C723.8092331745509 604.7156250959581, 256.05913266986244 604.7242132788842, -0.12958097569644453 607.8783453433105 M0.6602913998067379 607.0077832574286 C0.2851177307172389 429.75727562288876, 0.5437239976926418 251.1979033948431, 0.5872088335454464 -0.4423959277570248 M-0.24663543812930586 607.9423892466613 C0.2629312127018292 401.7448237229793, -0.11282749482151679 196.33493634565951, -0.10121868960559369 -0.32736595161259174" stroke="#000000" stroke-width="1" fill="none"></path></g><g><g transform="translate(801.3723318917403 36.995069231302296) rotate(0 -0.9120944436181162 305.1839646122113)"><path d="M-0.12961372397840032 0.21592983864247794 C-0.3115843560546637 102.12264362351881, -0.07776156924664974 509.42676458591154, -0.05075888894498348 611.0842401658318 M-1.6567996584065259 -0.7163109414093196 C-2.092326161134988 100.83497059117916, -1.182205262053758 507.1052690939934, -1.0254527692683042 609.0759430788219" stroke="#000000" stroke-width="1" fill="none"></path></g></g><g transform="translate(495.4229736328123 61.37976510183694) rotate(0 135.5 32)"><text x="0" y="26" font-family="Helvetica, Segoe UI Emoji" font-size="28px" fill="#000000" text-anchor="start" style="white-space: pre;" direction="ltr">Memory component / </text><text x="0" y="58" font-family="Helvetica, Segoe UI Emoji" font-size="28px" fill="#000000" text-anchor="start" style="white-space: pre;" direction="ltr">Variable Environment</text></g><g transform="translate(1065.3528703962045 73.75101579938269) rotate(0 170 16)"><text x="0" y="26" font-family="Helvetica, Segoe UI Emoji" font-size="28px" fill="#000000" text-anchor="start" style="white-space: pre;" direction="ltr">Code / Thread of Execution</text></g><g><g transform="translate(422.8777640206475 144.16456386020695) rotate(0 594.0847057330993 0.4684324180651629)"><path d="M0.8415161702781917 0.8270554985851051 C199.07480912288383 1.2093231048434974, 990.4474053646304 1.3951179709285497, 1188.345238035864 1.1741434659808874 M-0.17582656966522348 0.21565569000318652 C198.0963631337482 0.3929815377481283, 989.9908705096186 -0.3888683061115444, 1188.0250779780772 -0.33200596315786246" stroke="#000000" stroke-width="1" fill="none"></path></g></g><g transform="translate(822.3249162946431 684.453713553286) rotate(0 158 16)"><text x="0" y="26" font-family="Helvetica, Segoe UI Emoji" font-size="28px" fill="#000000" text-anchor="start" style="white-space: pre;" direction="ltr">Global Execution Context</text></g><g transform="translate(9.999999999999986 168.4003688267146) rotate(0 141 112)"><text x="0" y="26" font-family="Helvetica, Segoe UI Emoji" font-size="28px" fill="#000000" text-anchor="start" style="white-space: pre;" direction="ltr">var n = 2;</text><text x="0" y="58" font-family="Helvetica, Segoe UI Emoji" font-size="28px" fill="#000000" text-anchor="start" style="white-space: pre;" direction="ltr">function square(num){</text><text x="0" y="90" font-family="Helvetica, Segoe UI Emoji" font-size="28px" fill="#000000" text-anchor="start" style="white-space: pre;" direction="ltr">  var ans = num * num;</text><text x="0" y="122" font-family="Helvetica, Segoe UI Emoji" font-size="28px" fill="#000000" text-anchor="start" style="white-space: pre;" direction="ltr">  return ans;</text><text x="0" y="154" font-family="Helvetica, Segoe UI Emoji" font-size="28px" fill="#000000" text-anchor="start" style="white-space: pre;" direction="ltr">}</text><text x="0" y="186" font-family="Helvetica, Segoe UI Emoji" font-size="28px" fill="#000000" text-anchor="start" style="white-space: pre;" direction="ltr">square2 = square(n);</text><text x="0" y="218" font-family="Helvetica, Segoe UI Emoji" font-size="28px" fill="#000000" text-anchor="start" style="white-space: pre;" direction="ltr">square4 = square(4);</text></g><g transform="translate(478.1261771065847 273.7898167201306) rotate(0 120 64)"><text x="0" y="26" font-family="Helvetica, Segoe UI Emoji" font-size="28px" fill="#000000" text-anchor="start" style="white-space: pre;" direction="ltr">n: undefined</text><text x="0" y="58" font-family="Helvetica, Segoe UI Emoji" font-size="28px" fill="#000000" text-anchor="start" style="white-space: pre;" direction="ltr">square: {...}</text><text x="0" y="90" font-family="Helvetica, Segoe UI Emoji" font-size="28px" fill="#000000" text-anchor="start" style="white-space: pre;" direction="ltr">square2: undefined</text><text x="0" y="122" font-family="Helvetica, Segoe UI Emoji" font-size="28px" fill="#000000" text-anchor="start" style="white-space: pre;" direction="ltr">square4: undefined</text></g><g><g transform="translate(362.2213309151785 66.54833548408055) rotate(0 -0.9216016036537837 278.79714490799756)"><path d="M-0.9839060101658106 -0.5270167138427496 C-1.2387300133172914 92.46253083456482, -1.5633979899010284 464.010647855149, -1.793070549571064 557.0855236964032 M0.7004046051576736 1.8106955660507085 C0.3435884180824715 94.99553293250678, -1.8887422708368522 465.22686280199275, -2.543607812465277 558.121306529838" stroke="#000000" stroke-width="1" fill="none"></path></g><g transform="translate(362.2213309151785 66.54833548408055) rotate(0 -0.9216016036537837 278.79714490799756)"><path d="M-13.501246698240726 530.4921994571674 C-11.614030494635916 537.4816262608772, -7.417573177811729 544.4236224451703, -1.6497117337743905 559.3789210176201 M-11.796647475141077 529.201297700322 C-11.327890399675482 536.7123851354388, -8.782180491256085 541.8727260195018, -3.2061266443665293 557.6747718244897" stroke="#000000" stroke-width="1" fill="none"></path></g><g transform="translate(362.2213309151785 66.54833548408055) rotate(0 -0.9216016036537837 278.79714490799756)"><path d="M7.019538383784655 530.6240402822767 C3.20312851822477 537.4085623619691, 1.6950239579563071 544.3139081870406, -1.6497117337743905 559.3789210176201 M8.724137606884304 529.3331385254313 C4.772524813312422 536.6642283203006, 2.8970934144272693 541.7961644958912, -3.2061266443665293 557.6747718244897" stroke="#000000" stroke-width="1" fill="none"></path></g></g><g transform="translate(216.03533935546875 336.46778651644786) rotate(269.733384133158 165 16)"><text x="0" y="26" font-family="Helvetica, Segoe UI Emoji" font-size="28px" fill="#000000" text-anchor="start" style="white-space: pre;" direction="ltr">Memory creation Phase(1)</text></g><g transform="translate(302.23958734024933 10) rotate(0 21.386222901094015 20.62859671456465)"><path d="M21.386222901094023 0 C25.739375949052977 -0.2633736980422441, 31.622802313137672 1.9850950841542474, 35.133021999911776 4.8261748320299915 C38.64324168668588 7.667254579905736, 41.65183881765095 12.693691780618304, 42.44754102173865 17.046478487254465 C43.243243225826355 21.399265193890628, 42.19836840757427 27.115118682321125, 39.90723522443798 30.94289507184696 C37.616102041301694 34.77067146137279, 33.00666381378271 38.501429865649044, 28.7007419229209 40.013136824409465 C24.394820032059094 41.524843783169885, 18.377625770128954 41.52484378316989, 14.071703879267147 40.01313682440947 C9.76578198840534 38.50142986564905, 5.1563437608863545 34.77067146137279, 2.8652105777500623 30.94289507184696 C0.57407739461377 27.115118682321125, -0.47079742363830646 21.39926519389062, 0.3249047804493941 17.04647848725446 C1.1206069845370945 12.693691780618302, 4.129204115502162 7.667254579905737, 7.639423802276266 4.826174832029993 C11.14964348905037 1.9850950841542496, 19.095089717957727 0.7356004829564501, 21.38622290109402 0 C23.67735608423031 -0.7356004829564501, 21.386222901094023 0.06876198904854885, 21.386222901094023 0.412571934291293" stroke="#000000" stroke-width="1.5" fill="none" stroke-dasharray="3 6"></path></g><g transform="translate(319.01553976567254 21.408055763225093) rotate(0 4.610270475670802 9.220540951341604)"><text x="4.610270475670813" y="14.441081902683251" font-family="Helvetica, Segoe UI Emoji" font-size="16.135946664847843px" fill="#000000" text-anchor="middle" style="white-space: pre;" direction="ltr">1</text></g><g transform="translate(423.20161565673163 743.1974901471831) rotate(0 595.2869960239952 303.8408115931918)"><path d="M0.4873916767537594 0.4836285807192326 C342.3742405059787 -0.6730881524547172, 685.6953811748033 -0.35562744860492473, 1190.136967540319 0.38999018445611 M-0.397022582218051 0.12293375246226788 C299.78866479475573 -0.2077289025302122, 599.8982768085704 -0.4096795837397764, 1190.8039368124407 -0.3362752247601748 M1190.5438822513174 -0.6299952052533627 C1190.7675089107267 130.80126176946453, 1190.1962239728682 260.74877622098904, 1190.7975323205542 607.7941201085487 M1190.3591815443438 -0.3178215313702822 C1188.4293577435983 177.69724001912994, 1188.4229330662263 355.6372233683362, 1190.4981472583215 607.3777810780593 M1190.7714453225683 607.7486403340736 C941.0557833409586 608.1413486734165, 692.5462393708235 608.795404531075, -0.2915579415857792 607.4882248992362 M1190.8051955790918 607.307272979457 C763.406076305272 611.1681341062853, 335.75004670735564 611.4287086020777, 0.38569544441998005 607.9864207832404 M0.32220491394400597 607.2350241774955 C2.5725860808524788 412.7235991768471, 1.2057948563728036 217.15738673113026, 0.6408986233174802 -0.7825538419187069 M0.23155907280743124 607.669626673896 C-2.1054534134010208 444.9851557970597, -2.3806898888687025 281.824801054867, 0.1758081424981356 0.03484652750194073" stroke="#000000" stroke-width="1" fill="none"></path></g><g><g transform="translate(793.0033385919986 748.8190896170468) rotate(0 -0.5256962158251781 305.8888768994784)"><path d="M0.7310875151306391 0.7254428710788487 C0.6062736365944147 102.44580678718077, -0.4796572234481573 508.7216406249397, -0.547170152887702 610.4161183868669 M-0.344230268765241 0.060696433056145915 C-0.6925927223451436 101.93779441576363, -1.7950961347110572 509.68995505351137, -1.78247994678095 611.7170573659002" stroke="#000000" stroke-width="1" fill="none"></path></g></g><g transform="translate(466.29479018240113 770.0476575578941) rotate(0 135.5 32)"><text x="0" y="26" font-family="Helvetica, Segoe UI Emoji" font-size="28px" fill="#000000" text-anchor="start" style="white-space: pre;" direction="ltr">Memory component / </text><text x="0" y="58" font-family="Helvetica, Segoe UI Emoji" font-size="28px" fill="#000000" text-anchor="start" style="white-space: pre;" direction="ltr">Variable Environment</text></g><g transform="translate(1068.0934090440076 781.6835218157075) rotate(0 170 16)"><text x="0" y="26" font-family="Helvetica, Segoe UI Emoji" font-size="28px" fill="#000000" text-anchor="start" style="white-space: pre;" direction="ltr">Code / Thread of Execution</text></g><g><g transform="translate(425.6183026684506 852.0970698765318) rotate(0 593.3622784027564 -0.05890253579241289)"><path d="M-0.4504500422626734 0.326009938493371 C197.2911439538534 0.307948837056756, 989.1442233222404 -0.5052502419799566, 1187.1750068477754 -0.6555367615073919 M1.5139249562099577 -0.5484387891367077 C199.03627375097676 -0.37161422062665217, 988.6135178949736 0.3730701692029833, 1186.240475416242 0.5377316899225115" stroke="#000000" stroke-width="1" fill="none"></path></g></g><g transform="translate(825.0654549424462 1392.017480032781) rotate(0 158 16)"><text x="0" y="26" font-family="Helvetica, Segoe UI Emoji" font-size="28px" fill="#000000" text-anchor="start" style="white-space: pre;" direction="ltr">Global Execution Context</text></g><g transform="translate(483.6856244457939 977.2363695417012) rotate(0 120 64)"><text x="0" y="26" font-family="Helvetica, Segoe UI Emoji" font-size="28px" fill="#000000" text-anchor="start" style="white-space: pre;" direction="ltr">n: 2</text><text x="0" y="58" font-family="Helvetica, Segoe UI Emoji" font-size="28px" fill="#000000" text-anchor="start" style="white-space: pre;" direction="ltr">square: {...}</text><text x="0" y="90" font-family="Helvetica, Segoe UI Emoji" font-size="28px" fill="#000000" text-anchor="start" style="white-space: pre;" direction="ltr">square2: undefined</text><text x="0" y="122" font-family="Helvetica, Segoe UI Emoji" font-size="28px" fill="#000000" text-anchor="start" style="white-space: pre;" direction="ltr">square4: undefined</text></g><g transform="translate(1513.4040712944925 1035.0878724948743) rotate(269.733384133158 159.5 16)"><text x="0" y="26" font-family="Helvetica, Segoe UI Emoji" font-size="28px" fill="#000000" text-anchor="start" style="white-space: pre;" direction="ltr">Code Execution Phase(2)</text></g><g><g transform="translate(1695.4684613598565 756.2066541399149) rotate(0 0.4485337279347732 294.72697499081755)"><path d="M-0.45776363946497434 0.09135938622057438 C-0.6560888738238569 98.58068272649706, -0.6465262253104431 491.9661334290833, -0.6049661294691304 590.3602308629877 M1.5027717204764488 -0.9062808813527227 C1.601020557763303 97.26005487027973, 1.3540091799305098 490.22067981512396, 1.481677839910235 588.431276774337" stroke="#000000" stroke-width="1" fill="none"></path></g><g transform="translate(1695.4684613598565 756.2066541399149) rotate(0 0.4485337279347732 294.72697499081755)"><path d="M-8.632811486684 558.2576246605864 C-4.725126841842052 568.7884461228763, -0.9850867649089494 578.8997262100311, 1.246115073939409 589.581000596588 M-9.607310720682358 560.2051003258354 C-7.596229619960363 567.2277851659389, -4.143683023165596 572.6004639154049, 1.3107735583610793 588.7107021150416" stroke="#000000" stroke-width="1" fill="none"></path></g><g transform="translate(1695.4684613598565 756.2066541399149) rotate(0 0.4485337279347732 294.72697499081755)"><path d="M11.888396624385758 558.2531471608139 C8.639313637696851 568.7072479547296, 5.222607564246735 578.8200895644364, 1.246115073939409 589.581000596588 M10.9138973903874 560.2006228260628 C8.493771312668764 567.1813928966133, 7.51514894361768 572.5550384779505, 1.3107735583610793 588.7107021150416" stroke="#000000" stroke-width="1" fill="none"></path></g></g><g transform="translate(304.98012598805246 717.9325060163246) rotate(0 21.386222901094015 20.628596714564537)"><path d="M21.386222901094023 0 C25.739375949052977 -0.2633736980422441, 31.622802313137672 1.9850950841542474, 35.133021999911776 4.8261748320299915 C38.64324168668588 7.667254579905736, 41.65183881765095 12.693691780618304, 42.44754102173865 17.046478487254465 C43.243243225826355 21.399265193890628, 42.19836840757427 27.115118682321125, 39.90723522443798 30.94289507184696 C37.616102041301694 34.77067146137279, 33.00666381378271 38.501429865649044, 28.7007419229209 40.013136824409465 C24.394820032059094 41.524843783169885, 18.377625770128954 41.52484378316989, 14.071703879267147 40.01313682440947 C9.76578198840534 38.50142986564905, 5.1563437608863545 34.77067146137279, 2.8652105777500623 30.94289507184696 C0.57407739461377 27.115118682321125, -0.47079742363830646 21.39926519389062, 0.3249047804493941 17.04647848725446 C1.1206069845370945 12.693691780618302, 4.129204115502162 7.667254579905737, 7.639423802276266 4.826174832029993 C11.14964348905037 1.9850950841542496, 19.095089717957727 0.7356004829564501, 21.38622290109402 0 C23.67735608423031 -0.7356004829564501, 21.386222901094023 0.06876198904854885, 21.386222901094023 0.412571934291293" stroke="#000000" stroke-width="1.5" fill="none" stroke-dasharray="3 6"></path></g><g transform="translate(321.7560784134757 729.3405617795497) rotate(0 4.5 9)"><text x="4.5" y="14" font-family="Helvetica, Segoe UI Emoji" font-size="16.135946664847843px" fill="#000000" text-anchor="middle" style="white-space: pre;" direction="ltr">2</text></g><g transform="translate(818.1067225244014 879.0924508230951) rotate(0 370.8866664341517 160.61636788504484)"><path d="M0 0 C285.7108444878175 0, 571.421688975635 0, 741.7733328683034 0 M0 0 C247.64941299903242 0, 495.29882599806484 0, 741.7733328683034 0 M741.7733328683034 0 C741.7733328683034 80.60723261073535, 741.7733328683034 161.2144652214707, 741.7733328683034 321.23273577008973 M741.7733328683034 0 C741.7733328683034 125.94063524383432, 741.7733328683034 251.88127048766864, 741.7733328683034 321.23273577008973 M741.7733328683034 321.23273577008973 C560.6800308308926 321.23273577008973, 379.5867287934819 321.23273577008973, 0 321.23273577008973 M741.7733328683034 321.23273577008973 C477.24766416424245 321.23273577008973, 212.72199546018146 321.23273577008973, 0 321.23273577008973 M0 321.23273577008973 C0 228.8093741971, 0 136.3860126241103, 0 0 M0 321.23273577008973 C0 252.57264743052784, 0 183.91255909096594, 0 0" stroke="#000000" stroke-width="2" fill="none"></path></g><g transform="translate(981.6271954596691 1228.6584211076934) rotate(0 173 16)"><text x="0" y="26" font-family="Helvetica, Segoe UI Emoji" font-size="28px" fill="#000000" text-anchor="start" style="white-space: pre;" direction="ltr">square(n) execution context</text></g><g><g transform="translate(821.815567390473 936.5866088867115) rotate(0 370.2135358537946 0)"><path d="M0 0 C123.40451195126487 0, 617.0225597563243 0, 740.4270717075892 0 M0 0 C123.40451195126487 0, 617.0225597563243 0, 740.4270717075892 0" stroke="#000000" stroke-width="2" fill="none"></path></g></g><g><g transform="translate(1002.625939879312 881.4570399693007) rotate(0 0 156.68980189732133)"><path d="M0 0 C0 52.229933965773775, 0 261.14966982886887, 0 313.37960379464266 M0 0 C0 52.229933965773775, 0 261.14966982886887, 0 313.37960379464266" stroke="#000000" stroke-width="2" fill="none"></path></g></g><g transform="translate(840.1672693993999 1015.7762451171766) rotate(0 69 23)"><text x="0" y="18" font-family="Helvetica, Segoe UI Emoji" font-size="20px" fill="#000000" text-anchor="start" style="white-space: pre;" direction="ltr">num: undefined</text><text x="0" y="41" font-family="Helvetica, Segoe UI Emoji" font-size="20px" fill="#000000" text-anchor="start" style="white-space: pre;" direction="ltr">ans: undefined</text></g><g transform="translate(871.8951746728375 895.6766008649442) rotate(0 36 11.5)"><text x="0" y="18" font-family="Helvetica, Segoe UI Emoji" font-size="20px" fill="#000000" text-anchor="start" style="white-space: pre;" direction="ltr">Memory</text></g><g transform="translate(1238.0183959339981 896.1455688476453) rotate(0 24 11.5)"><text x="0" y="18" font-family="Helvetica, Segoe UI Emoji" font-size="20px" fill="#000000" text-anchor="start" style="white-space: pre;" direction="ltr">Code</text></g><g transform="translate(417.97770707850714 1462.4880126980374) rotate(0 595.2869960239952 303.8408115931918)"><path d="M-0.661471638828516 -0.2974778912961483 C354.67283030100566 2.617256489140137, 707.7428889241894 2.5854953912321172, 1191.120681739385 0.4580933071672917 M-0.3025736819952727 0.06579640619456768 C449.80215409591847 0.42911061299832054, 899.877730338798 0.5192757154801626, 1190.5237229319018 -0.1405027199536562 M1190.983089614446 0.348630378395319 C1189.3211815089153 211.96705403265372, 1188.8320773571895 423.67683281996875, 1191.3364070420812 607.0158029431739 M1190.5924320192735 -0.2841461945325136 C1190.8363917694307 135.6672221168472, 1190.5186374411799 271.79580714880797, 1190.7458462806146 608.0572861878463 M1189.857219458158 608.3519393796363 C824.8794098229824 611.6591945635178, 458.47793304303144 613.1818020569183, -0.4546516038477421 608.3940538520255 M1190.9144058318536 607.7953840462752 C931.6762147655705 607.0214385530809, 672.5436622033156 607.0168046138147, 0.38127807267010216 607.5554690448829 M0.022416915744543076 608.1685630912223 C0.988968990167976 422.80242433139193, 0.9334601143211133 238.9878457827432, 0.3280826710164547 0.07861263528466225 M-0.2758001934736967 607.3304840175697 C1.566070957679218 462.5836921675878, 1.83839155008263 317.04768637412457, 0.1595575798302889 -0.3960640121251345" stroke="#000000" stroke-width="1" fill="none"></path></g><g><g transform="translate(787.779430013774 1468.1096121679007) rotate(0 -0.15223128070124403 304.60683905839664)"><path d="M-0.992207458242774 -0.44621683694422243 C-0.9499299671500921 101.34165043609131, 0.680034253373742 508.18891829484636, 0.6670638654381036 609.9064169918321 M0.6877448968403042 -1.726084621679038 C0.5941967819444836 100.25395598035219, -0.02656663255766041 508.8775535001189, 0.06922693116590373 610.9397627384722" stroke="#000000" stroke-width="1" fill="none"></path></g></g><g transform="translate(461.0708816041765 1489.3381801087476) rotate(0 135.5 32)"><text x="0" y="26" font-family="Helvetica, Segoe UI Emoji" font-size="28px" fill="#000000" text-anchor="start" style="white-space: pre;" direction="ltr">Memory component / </text><text x="0" y="58" font-family="Helvetica, Segoe UI Emoji" font-size="28px" fill="#000000" text-anchor="start" style="white-space: pre;" direction="ltr">Variable Environment</text></g><g transform="translate(1062.8695004657834 1500.9740443665619) rotate(0 170 16)"><text x="0" y="26" font-family="Helvetica, Segoe UI Emoji" font-size="28px" fill="#000000" text-anchor="start" style="white-space: pre;" direction="ltr">Code / Thread of Execution</text></g><g><g transform="translate(420.3943940902259 1571.3875924273857) rotate(0 593.6820922399977 -0.043714577313494374)"><path d="M-0.9601514372974633 -1.0700297858566046 C196.80446349387722 -1.0445346739143133, 988.0087132113853 0.4861886713653804, 1186.141472750104 0.8200345370918514 M0.7366303287819029 0.9826006312295794 C198.90408604951307 0.615848425142467, 990.5418649759197 -0.5549854879453779, 1188.324335917293 -0.8720220797136427" stroke="#000000" stroke-width="1" fill="none"></path></g></g><g transform="translate(819.8415463642214 2111.308002583635) rotate(0 158 16)"><text x="0" y="26" font-family="Helvetica, Segoe UI Emoji" font-size="28px" fill="#000000" text-anchor="start" style="white-space: pre;" direction="ltr">Global Execution Context</text></g><g transform="translate(478.0930199272791 1696.526892092555) rotate(0 120 64)"><text x="0" y="26" font-family="Helvetica, Segoe UI Emoji" font-size="28px" fill="#000000" text-anchor="start" style="white-space: pre;" direction="ltr">n: 2</text><text x="0" y="58" font-family="Helvetica, Segoe UI Emoji" font-size="28px" fill="#000000" text-anchor="start" style="white-space: pre;" direction="ltr">square: {...}</text><text x="0" y="90" font-family="Helvetica, Segoe UI Emoji" font-size="28px" fill="#000000" text-anchor="start" style="white-space: pre;" direction="ltr">square2: undefined</text><text x="0" y="122" font-family="Helvetica, Segoe UI Emoji" font-size="28px" fill="#000000" text-anchor="start" style="white-space: pre;" direction="ltr">square4: undefined</text></g><g transform="translate(1508.180162716269 1754.3783950457278) rotate(269.733384133158 159.5 16)"><text x="0" y="26" font-family="Helvetica, Segoe UI Emoji" font-size="28px" fill="#000000" text-anchor="start" style="white-space: pre;" direction="ltr">Code Execution Phase(2)</text></g><g><g transform="translate(1690.2445527816335 1475.4971766907688) rotate(0 0.4272318136232798 295.8955473132644)"><path d="M0.6871399607509374 0.9330454085022211 C1.0586080460942033 99.11570409118593, 1.3891419928253905 491.7066910639137, 1.2210154279001018 589.915986633194 M-0.41125028919428597 0.3772903026267884 C-0.0540666393616554 98.68596245143026, 0.18840321258765624 492.8750302082404, 0.606299714898314 591.4138043239018" stroke="#000000" stroke-width="1" fill="none"></path></g><g transform="translate(1690.2445527816335 1475.4971766907688) rotate(0 0.4272318136232798 295.8955473132644)"><path d="M-8.161406325552878 564.3039238307482 C-7.4198315264405155 567.7585446310617, -4.735212360736826 575.6478189909589, 1.2548454327188392 593.3641492384722 M-9.233469213735578 562.7562483636519 C-6.055829119082889 573.792144928551, -1.987567676334204 583.2007967225602, 0.9947588283248205 590.723668534798" stroke="#000000" stroke-width="1" fill="none"></path></g><g transform="translate(1690.2445527816335 1475.4971766907688) rotate(0 0.4272318136232798 295.8955473132644)"><path d="M12.35975231960516 564.2586441874879 C8.668712429225122 567.8405537393852, 6.920407481508906 575.7396092829829, 1.2548454327188392 593.3641492384722 M11.28768943142246 562.7109687203916 C7.180906457063303 573.6908561699685, 3.9648017349912266 583.1155808138114, 0.9947588283248205 590.723668534798" stroke="#000000" stroke-width="1" fill="none"></path></g></g><g transform="translate(812.8828139461766 1598.382973373949) rotate(0 370.8866664341517 160.61636788504484)"><path d="M0 0 C265.00717476325923 0, 530.0143495265185 0, 741.7733328683034 0 M0 0 C196.47670714621967 0, 392.95341429243933 0, 741.7733328683034 0 M741.7733328683034 0 C741.7733328683034 69.63441344886111, 741.7733328683034 139.26882689772222, 741.7733328683034 321.23273577008973 M741.7733328683034 0 C741.7733328683034 126.53863415290292, 741.7733328683034 253.07726830580583, 741.7733328683034 321.23273577008973 M741.7733328683034 321.23273577008973 C453.183574346454 321.23273577008973, 164.59381582460458 321.23273577008973, 0 321.23273577008973 M741.7733328683034 321.23273577008973 C542.6357775068209 321.23273577008973, 343.4982221453382 321.23273577008973, 0 321.23273577008973 M0 321.23273577008973 C0 221.7062960517393, 0 122.17985633338881, 0 0 M0 321.23273577008973 C0 256.67009657782154, 0 192.10745738555337, 0 0" stroke="#000000" stroke-width="2" fill="none"></path></g><g transform="translate(976.4032868814443 1947.9489436585468) rotate(0 173 16)"><text x="0" y="26" font-family="Helvetica, Segoe UI Emoji" font-size="28px" fill="#000000" text-anchor="start" style="white-space: pre;" direction="ltr">square(n) execution context</text></g><g><g transform="translate(816.5916588122482 1655.877131437565) rotate(0 370.2135358537946 0)"><path d="M0 0 C123.40451195126487 0, 617.0225597563243 0, 740.4270717075892 0 M0 0 C123.40451195126487 0, 617.0225597563243 0, 740.4270717075892 0" stroke="#000000" stroke-width="2" fill="none"></path></g></g><g><g transform="translate(997.4020313010874 1600.7475625201546) rotate(0 0 156.68980189732133)"><path d="M0 0 C0 52.229933965773775, 0 261.14966982886887, 0 313.37960379464266 M0 0 C0 52.229933965773775, 0 261.14966982886887, 0 313.37960379464266" stroke="#000000" stroke-width="2" fill="none"></path></g></g><g transform="translate(834.5769754975145 1735.06676766803) rotate(0 30.5 23)"><text x="0" y="18" font-family="Helvetica, Segoe UI Emoji" font-size="20px" fill="#000000" text-anchor="start" style="white-space: pre;" direction="ltr">num: 2</text><text x="0" y="41" font-family="Helvetica, Segoe UI Emoji" font-size="20px" fill="#000000" text-anchor="start" style="white-space: pre;" direction="ltr">ans: 4</text></g><g transform="translate(866.6712660946126 1614.9671234157981) rotate(0 36 11.5)"><text x="0" y="18" font-family="Helvetica, Segoe UI Emoji" font-size="20px" fill="#000000" text-anchor="start" style="white-space: pre;" direction="ltr">Memory</text></g><g transform="translate(1232.794487355774 1615.4360913984988) rotate(0 24 11.5)"><text x="0" y="18" font-family="Helvetica, Segoe UI Emoji" font-size="20px" fill="#000000" text-anchor="start" style="white-space: pre;" direction="ltr">Code</text></g><g transform="translate(324.2187557616991 1462.192404610757) rotate(0 21.386222901094015 20.628596714564537)"><path d="M21.386222901094023 0 C25.739375949052977 -0.2633736980422441, 31.622802313137672 1.9850950841542474, 35.133021999911776 4.8261748320299915 C38.64324168668588 7.667254579905736, 41.65183881765095 12.693691780618304, 42.44754102173865 17.046478487254465 C43.243243225826355 21.399265193890628, 42.19836840757427 27.115118682321125, 39.90723522443798 30.94289507184696 C37.616102041301694 34.77067146137279, 33.00666381378271 38.501429865649044, 28.7007419229209 40.013136824409465 C24.394820032059094 41.524843783169885, 18.377625770128954 41.52484378316989, 14.071703879267147 40.01313682440947 C9.76578198840534 38.50142986564905, 5.1563437608863545 34.77067146137279, 2.8652105777500623 30.94289507184696 C0.57407739461377 27.115118682321125, -0.47079742363830646 21.39926519389062, 0.3249047804493941 17.04647848725446 C1.1206069845370945 12.693691780618302, 4.129204115502162 7.667254579905737, 7.639423802276266 4.826174832029993 C11.14964348905037 1.9850950841542496, 19.095089717957727 0.7356004829564501, 21.38622290109402 0 C23.67735608423031 -0.7356004829564501, 21.386222901094023 0.06876198904854885, 21.386222901094023 0.412571934291293" stroke="#000000" stroke-width="1.5" fill="none" stroke-dasharray="3 6"></path></g><g transform="translate(340.9947081871222 1473.600460373982) rotate(0 4.5 9)"><text x="4.5" y="14" font-family="Helvetica, Segoe UI Emoji" font-size="16.135946664847843px" fill="#000000" text-anchor="middle" style="white-space: pre;" direction="ltr">3</text></g><g><g transform="translate(537.9932843268551 1705.4488263811263) rotate(0 142.54928588867182 18.473917832583993)"><path d="M0 0 C47.516428629557275 6.157972610861331, 237.58214314778635 30.789863054306654, 285.09857177734364 36.947835665167986" stroke="#000000" stroke-width="2.5" fill="none" stroke-dasharray="12 8"></path></g><g transform="translate(537.9932843268551 1705.4488263811263) rotate(0 142.54928588867182 18.473917832583993)"><path d="M255.8228760837397 43.50021245954561 C266.8438961994257 41.03352892750688, 277.8649163151117 38.56684539546815, 285.09857177734364 36.947835665167986" stroke="#000000" stroke-width="2.5" fill="none"></path></g><g transform="translate(537.9932843268551 1705.4488263811263) rotate(0 142.54928588867182 18.473917832583993)"><path d="M258.4603011553926 23.149193040920505 C268.48844598392867 28.343779004738224, 278.51659081246476 33.538364968555946, 285.09857177734364 36.947835665167986" stroke="#000000" stroke-width="2.5" fill="none"></path></g></g><g transform="translate(1150.950524840248 1707.740766252778) rotate(0 95.5 34.5)"><text x="0" y="18" font-family="Helvetica, Segoe UI Emoji" font-size="20px" fill="#000000" text-anchor="start" style="white-space: pre;" direction="ltr">num * num (2 * 2) = 4</text><text x="0" y="41" font-family="Helvetica, Segoe UI Emoji" font-size="20px" fill="#000000" text-anchor="start" style="white-space: pre;" direction="ltr"></text><text x="0" y="64" font-family="Helvetica, Segoe UI Emoji" font-size="20px" fill="#000000" text-anchor="start" style="white-space: pre;" direction="ltr">return ans;</text></g><g><g transform="translate(1134.5400023793104 1723.259059361037) rotate(0 -112.3068237304687 25.50724574497758)"><path d="M0 0 C-37.43560791015623 8.50241524832586, -187.17803955078116 42.5120762416293, -224.6136474609374 51.01449148995516" stroke="#000000" stroke-width="2.5" fill="none" stroke-dasharray="12 8"></path></g><g transform="translate(1134.5400023793104 1723.259059361037) rotate(0 -112.3068237304687 25.50724574497758)"><path d="M-199.3955157586551 34.76500431508269 C-206.63948526599603 39.432708925176804, -213.88345477333695 44.10041353527092, -224.6136474609374 51.01449148995516" stroke="#000000" stroke-width="2.5" fill="none"></path></g><g transform="translate(1134.5400023793104 1723.259059361037) rotate(0 -112.3068237304687 25.50724574497758)"><path d="M-194.85046878479315 54.77656473378136 C-203.40001406106023 53.69590006819895, -211.9495593373273 52.615235402616534, -224.6136474609374 51.01449148995516" stroke="#000000" stroke-width="2.5" fill="none"></path></g></g><g transform="translate(404.25081687755903 2170.187943378176) rotate(0 595.2869960239952 303.8408115931918)"><path d="M-0.28511994108557703 0.1753238581120968 C380.7598057064744 1.2327767190481587, 760.9763843386536 1.6610523280645773, 1191.0385976632786 -0.22234443202614784 M0.13603611700236798 0.1994038213044405 C358.7682589590697 -2.505624817835682, 717.9990730334368 -2.3911266436451606, 1190.4216298872334 -0.2738619100302458 M1190.6446010431002 0.36680294498801236 C1190.5934285877497 123.5642828522667, 1189.471485757664 246.38194327102, 1190.4085332950306 608.0221590558328 M1190.3305071646075 0.3411942232400179 C1191.020879399077 152.55041004314626, 1191.0119886391321 304.6331842889558, 1190.481337326179 607.9455466276296 M1190.9534954150868 608.2886562863627 C878.2096762606603 609.8350606874588, 566.0430276689782 609.6272050098542, -0.21420827135443687 608.4341566363611 M1190.215901249061 607.8806680685171 C723.047174650312 605.6737785546815, 255.62545236979994 605.6647774307763, 0.2028540324419737 607.6486231928953 M0.19998602643609048 608.4071052829065 C2.8549016591185827 446.9968943446037, 2.518235623466422 286.3630650896504, -0.20681383833289146 -0.7107901670038701 M-0.15046961791813374 607.56269666015 C1.6239786231567177 437.1029773628528, 1.7153815949012552 266.46879403052156, 0.32702298872172836 0.12668858654797077" stroke="#000000" stroke-width="1" fill="none"></path></g><g><g transform="translate(774.0525398128258 2175.809542848039) rotate(0 0.5604847468994194 305.21779309205476)"><path d="M-0.4276799116283655 0.26298578716814514 C-0.39708428718149663 102.1554682001649, 0.7224817123264073 509.17020939895446, 0.9869323935359715 611.0801368040167 M1.5486494054272772 -0.6445506199076771 C1.4372864438965918 100.88502807056445, 0.6481657423451543 507.32402243388384, 0.5570264365151525 609.0696854520537" stroke="#000000" stroke-width="1" fill="none"></path></g></g><g transform="translate(447.3439914032284 2197.038110788886) rotate(0 135.5 32)"><text x="0" y="26" font-family="Helvetica, Segoe UI Emoji" font-size="28px" fill="#000000" text-anchor="start" style="white-space: pre;" direction="ltr">Memory component / </text><text x="0" y="58" font-family="Helvetica, Segoe UI Emoji" font-size="28px" fill="#000000" text-anchor="start" style="white-space: pre;" direction="ltr">Variable Environment</text></g><g transform="translate(1049.1426102648345 2208.6739750467004) rotate(0 170 16)"><text x="0" y="26" font-family="Helvetica, Segoe UI Emoji" font-size="28px" fill="#000000" text-anchor="start" style="white-space: pre;" direction="ltr">Code / Thread of Execution</text></g><g><g transform="translate(406.6675038892778 2279.0875231075242) rotate(0 593.4359003325194 0.049617385910778466)"><path d="M0.2135683748871089 1.1590241756290196 C198.17061201413827 1.110686847195029, 990.2382174874523 0.887098702415824, 1188.0052476226751 0.6969084229320288 M-1.1334469576366246 0.7219079224951566 C196.71746254291116 0.24256124483421448, 989.6718589969219 -1.1635976905934513, 1187.506592597964 -1.0597894038073719" stroke="#000000" stroke-width="1" fill="none"></path></g></g><g transform="translate(806.1146561632729 2819.007933263773) rotate(0 158 16)"><text x="0" y="26" font-family="Helvetica, Segoe UI Emoji" font-size="28px" fill="#000000" text-anchor="start" style="white-space: pre;" direction="ltr">Global Execution Context</text></g><g transform="translate(464.02437644787096 2433.4570822593005) rotate(0 120 64)"><text x="0" y="26" font-family="Helvetica, Segoe UI Emoji" font-size="28px" fill="#000000" text-anchor="start" style="white-space: pre;" direction="ltr">n: 2</text><text x="0" y="58" font-family="Helvetica, Segoe UI Emoji" font-size="28px" fill="#000000" text-anchor="start" style="white-space: pre;" direction="ltr">square: {...}</text><text x="0" y="90" font-family="Helvetica, Segoe UI Emoji" font-size="28px" fill="#000000" text-anchor="start" style="white-space: pre;" direction="ltr">square2: 4</text><text x="0" y="122" font-family="Helvetica, Segoe UI Emoji" font-size="28px" fill="#000000" text-anchor="start" style="white-space: pre;" direction="ltr">square4: undefined</text></g><g transform="translate(1494.4532725153197 2462.0783257258663) rotate(269.733384133158 159.5 16)"><text x="0" y="26" font-family="Helvetica, Segoe UI Emoji" font-size="28px" fill="#000000" text-anchor="start" style="white-space: pre;" direction="ltr">Code Execution Phase(2)</text></g><g><g transform="translate(1676.5176625806837 2183.1971073709074) rotate(0 0.854575129901832 294.8169123060559)"><path d="M-0.33351664803922176 0.017882498726248697 C-0.5108140074515101 98.34375738605321, -0.4290901374338849 492.2235313184291, -0.2078023680619936 590.6521577468937 M1.6922483824007215 -1.0183331347815692 C1.8225647289811318 96.89874372610286, 2.2955992139422614 490.6132115963765, 2.087352576056119 588.8764652722939" stroke="#000000" stroke-width="1" fill="none"></path></g><g transform="translate(1676.5176625806837 2183.1971073709074) rotate(0 0.854575129901832 294.8169123060559)"><path d="M-8.13768419351959 559.360416313557 C-3.094593981224209 571.861183247045, 0.6091602602677364 580.759205300213, 2.669990834170576 589.407822715254 M-9.138136033048568 560.5496704102662 C-5.020425172060863 570.9282444140923, -0.47890175496136234 581.3573633554041, 2.3926917811348996 587.9052336301147" stroke="#000000" stroke-width="1" fill="none"></path></g><g transform="translate(1676.5176625806837 2183.1971073709074) rotate(0 0.854575129901832 294.8169123060559)"><path d="M12.383523977196745 559.3646115445699 C9.806412334983708 571.8067859506184, 5.8899890860658095 580.7032501810371, 2.669990834170576 589.407822715254 M11.383072137667767 560.5538656412791 C8.159204261219948 570.79043934248, 5.3591329610223735 581.2180574128107, 2.3926917811348996 587.9052336301147" stroke="#000000" stroke-width="1" fill="none"></path></g></g><g transform="translate(799.1559237452286 2306.0829040540875) rotate(0 370.8866664341517 160.61636788504484)"><path d="M0 0 C265.6110068256814 0, 531.2220136513628 0, 741.7733328683034 0 M0 0 C194.2774529135229 0, 388.5549058270458 0, 741.7733328683034 0 M741.7733328683034 0 C741.7733328683034 89.72597474722224, 741.7733328683034 179.45194949444448, 741.7733328683034 321.23273577008973 M741.7733328683034 0 C741.7733328683034 88.92888828865267, 741.7733328683034 177.85777657730534, 741.7733328683034 321.23273577008973 M741.7733328683034 321.23273577008973 C539.1030809291296 321.23273577008973, 336.43282898995596 321.23273577008973, 0 321.23273577008973 M741.7733328683034 321.23273577008973 C481.62340507524794 321.23273577008973, 221.47347728219245 321.23273577008973, 0 321.23273577008973 M0 321.23273577008973 C0 233.16733692441127, 0 145.10193807873281, 0 0 M0 321.23273577008973 C0 198.60029270736482, 0 75.9678496446399, 0 0" stroke="#000000" stroke-width="2" fill="none"></path></g><g transform="translate(962.6763966804963 2655.282576208105) rotate(0 173 16)"><text x="0" y="26" font-family="Helvetica, Segoe UI Emoji" font-size="28px" fill="#000000" text-anchor="start" style="white-space: pre;" direction="ltr">square(n) execution context</text></g><g><g transform="translate(802.8647686112997 2363.5770621177035) rotate(0 370.2135358537946 0)"><path d="M0 0 C123.40451195126487 0, 617.0225597563243 0, 740.4270717075892 0 M0 0 C123.40451195126487 0, 617.0225597563243 0, 740.4270717075892 0" stroke="#000000" stroke-width="2" fill="none"></path></g></g><g><g transform="translate(983.675141100139 2308.447493200293) rotate(0 0 156.68980189732133)"><path d="M0 0 C0 52.229933965773775, 0 261.14966982886887, 0 313.37960379464266 M0 0 C0 52.229933965773775, 0 261.14966982886887, 0 313.37960379464266" stroke="#000000" stroke-width="2" fill="none"></path></g></g><g transform="translate(820.850085296566 2442.7666983481686) rotate(0 30.5 23)"><text x="0" y="18" font-family="Helvetica, Segoe UI Emoji" font-size="20px" fill="#000000" text-anchor="start" style="white-space: pre;" direction="ltr">num: 2</text><text x="0" y="41" font-family="Helvetica, Segoe UI Emoji" font-size="20px" fill="#000000" text-anchor="start" style="white-space: pre;" direction="ltr">ans: 4</text></g><g transform="translate(852.9443758936643 2322.6670540959367) rotate(0 36 11.5)"><text x="0" y="18" font-family="Helvetica, Segoe UI Emoji" font-size="20px" fill="#000000" text-anchor="start" style="white-space: pre;" direction="ltr">Memory</text></g><g transform="translate(1219.067597154825 2323.1360220786373) rotate(0 24 11.5)"><text x="0" y="18" font-family="Helvetica, Segoe UI Emoji" font-size="20px" fill="#000000" text-anchor="start" style="white-space: pre;" direction="ltr">Code</text></g><g transform="translate(310.49186556075085 2169.892335290896) rotate(0 21.386222901094015 20.628596714564537)"><path d="M21.386222901094023 0 C25.739375949052977 -0.2633736980422441, 31.622802313137672 1.9850950841542474, 35.133021999911776 4.8261748320299915 C38.64324168668588 7.667254579905736, 41.65183881765095 12.693691780618304, 42.44754102173865 17.046478487254465 C43.243243225826355 21.399265193890628, 42.19836840757427 27.115118682321125, 39.90723522443798 30.94289507184696 C37.616102041301694 34.77067146137279, 33.00666381378271 38.501429865649044, 28.7007419229209 40.013136824409465 C24.394820032059094 41.524843783169885, 18.377625770128954 41.52484378316989, 14.071703879267147 40.01313682440947 C9.76578198840534 38.50142986564905, 5.1563437608863545 34.77067146137279, 2.8652105777500623 30.94289507184696 C0.57407739461377 27.115118682321125, -0.47079742363830646 21.39926519389062, 0.3249047804493941 17.04647848725446 C1.1206069845370945 12.693691780618302, 4.129204115502162 7.667254579905737, 7.639423802276266 4.826174832029993 C11.14964348905037 1.9850950841542496, 19.095089717957727 0.7356004829564501, 21.38622290109402 0 C23.67735608423031 -0.7356004829564501, 21.386222901094023 0.06876198904854885, 21.386222901094023 0.412571934291293" stroke="#000000" stroke-width="1.5" fill="none" stroke-dasharray="3 6"></path></g><g transform="translate(327.2678179861738 2181.30039105412) rotate(0 4.5 9)"><text x="4.5" y="14" font-family="Helvetica, Segoe UI Emoji" font-size="16.135946664847843px" fill="#000000" text-anchor="middle" style="white-space: pre;" direction="ltr">4</text></g><g transform="translate(1146.3168266035848 2414.6240465422916) rotate(0 98 34.5)"><text x="0" y="18" font-family="Helvetica, Segoe UI Emoji" font-size="20px" fill="#000000" text-anchor="start" style="white-space: pre;" direction="ltr"> num * num (2 * 2) = 4</text><text x="0" y="41" font-family="Helvetica, Segoe UI Emoji" font-size="20px" fill="#000000" text-anchor="start" style="white-space: pre;" direction="ltr"></text><text x="0" y="64" font-family="Helvetica, Segoe UI Emoji" font-size="20px" fill="#000000" text-anchor="start" style="white-space: pre;" direction="ltr"> return ans;</text></g><g><g transform="translate(1144.43981752998 2477.3780075287536) rotate(0 -268.9701407296317 18.928990271612292)"><path d="M0 0 C-89.6567135765439 6.309663423870764, -448.28356788271947 31.548317119353822, -537.9402814592634 37.857980543224585" stroke="#000000" stroke-width="2.5" fill="none" stroke-dasharray="12 8"></path></g><g transform="translate(1144.43981752998 2477.3780075287536) rotate(0 -268.9701407296317 18.928990271612292)"><path d="M-510.53937229787454 25.643637452852538 C-516.8522261958325 28.45768142982043, -523.1650800937904 31.27172540678832, -537.9402814592634 37.857980543224585" stroke="#000000" stroke-width="2.5" fill="none"></path></g><g transform="translate(1144.43981752998 2477.3780075287536) rotate(0 -268.9701407296317 18.928990271612292)"><path d="M-509.09873886082204 46.114215795583505 C-515.7434981110827 44.212074279463465, -522.3882573613433 42.309932763343426, -537.9402814592634 37.857980543224585" stroke="#000000" stroke-width="2.5" fill="none"></path></g></g><g transform="translate(931.1142734451585 2709.8354056222) rotate(0 228 11.5)"><text x="0" y="18" font-family="Helvetica, Segoe UI Emoji" font-size="20px" fill="#000000" text-anchor="start" style="white-space: pre;" direction="ltr">Once returned function execution context is deleted</text></g><g transform="translate(405.5381355159526 2866.546498763219) rotate(0 595.2869960239952 303.8408115931916)"><path d="M0.3255237482488156 -0.24314828142523767 C459.11674342766463 0.34002121559731013, 916.7738711576176 0.8844342815076495, 1191.2560955529761 -0.5817108415067196 M0.30585905201733116 0.12229992859065533 C392.6294635346399 -2.4512582285800826, 784.6605986111346 -2.5201213701167955, 1190.5626644702356 -0.39350580461323265 M1190.6628210549902 -0.13500311598181725 C1188.8064058143468 224.38920418245146, 1188.3570332605216 450.5671933717539, 1190.6454895263266 607.7363999480643 M1190.940806541006 0.10239234678447247 C1191.9846137205168 131.0216931829805, 1191.607485536675 262.8071145483513, 1190.5047711105744 607.9177531807014 M1190.3420648818565 607.5253867263236 C884.426562049362 605.6356985640484, 576.6159809392799 605.7836501431424, 0.7271962307393551 607.7708772057929 M1190.196728488962 607.9923653213569 C895.6257978420779 612.4680360592891, 601.0604690781282 611.7411170400669, -0.25791683308780194 607.3781732050963 M-0.4572769977152348 608.0636664742866 C-2.001273276887053 400.9133126565362, -2.5013767267085254 192.10350830778, -0.3252387143671513 -0.39798121675848963 M0.006742571666836739 607.5523001162597 C1.3205877396592842 406.31375894394847, 1.7706194374093758 205.39912638674957, 0.1389055360108614 0.30912878029048446" stroke="#000000" stroke-width="1" fill="none"></path></g><g><g transform="translate(775.3398584512192 2872.168098233082) rotate(0 0.10243882860055464 305.462578941283)"><path d="M0.48828562237322326 -0.36472242213785644 C0.6793656799942255 101.47183373944748, 1.035592183843255 508.9257799887055, 0.8839609835296869 610.9472043906472 M-0.7145031552203001 -1.6018056390993298 C-0.5811273561604322 100.45248551797035, 0.515659211408347 510.61126758325406, 0.3999950362555684 612.5269635216653" stroke="#000000" stroke-width="1" fill="none"></path></g></g><g transform="translate(448.6313100416219 2893.396666173928) rotate(0 135.5 32)"><text x="0" y="26" font-family="Helvetica, Segoe UI Emoji" font-size="28px" fill="#000000" text-anchor="start" style="white-space: pre;" direction="ltr">Memory component / </text><text x="0" y="58" font-family="Helvetica, Segoe UI Emoji" font-size="28px" fill="#000000" text-anchor="start" style="white-space: pre;" direction="ltr">Variable Environment</text></g><g transform="translate(1050.4299289032283 2905.0325304317435) rotate(0 170 16)"><text x="0" y="26" font-family="Helvetica, Segoe UI Emoji" font-size="28px" fill="#000000" text-anchor="start" style="white-space: pre;" direction="ltr">Code / Thread of Execution</text></g><g><g transform="translate(407.95482252767135 2975.4460784925673) rotate(0 593.3551762533107 -0.36158202923525096)"><path d="M0.0806359615176917 -0.42150157950818534 C198.14917659764842 -0.3983025338500738, 990.3471774595656 0.893912586942315, 1188.0465213946466 1.0231552574783562 M-1.3361688880249858 -1.6883938540890813 C196.68477353276418 -2.058647561259568, 989.2280229543946 -0.5432065166905523, 1187.5695351002205 -0.5622629811242223" stroke="#000000" stroke-width="1" fill="none"></path></g></g><g transform="translate(807.4019748016667 3515.3664886488173) rotate(0 158 16)"><text x="0" y="26" font-family="Helvetica, Segoe UI Emoji" font-size="28px" fill="#000000" text-anchor="start" style="white-space: pre;" direction="ltr">Global Execution Context</text></g><g transform="translate(465.31169508626454 3129.8156376443444) rotate(0 120 64)"><text x="0" y="26" font-family="Helvetica, Segoe UI Emoji" font-size="28px" fill="#000000" text-anchor="start" style="white-space: pre;" direction="ltr">n: 2</text><text x="0" y="58" font-family="Helvetica, Segoe UI Emoji" font-size="28px" fill="#000000" text-anchor="start" style="white-space: pre;" direction="ltr">square: {...}</text><text x="0" y="90" font-family="Helvetica, Segoe UI Emoji" font-size="28px" fill="#000000" text-anchor="start" style="white-space: pre;" direction="ltr">square2: 4</text><text x="0" y="122" font-family="Helvetica, Segoe UI Emoji" font-size="28px" fill="#000000" text-anchor="start" style="white-space: pre;" direction="ltr">square4: undefined</text></g><g transform="translate(1495.740591153714 3158.4368811109093) rotate(269.733384133158 159.5 16)"><text x="0" y="26" font-family="Helvetica, Segoe UI Emoji" font-size="28px" fill="#000000" text-anchor="start" style="white-space: pre;" direction="ltr">Code Execution Phase(2)</text></g><g><g transform="translate(1677.804981219078 2879.5556627559504) rotate(0 -0.0011842707731375413 295.0823953701579)"><path d="M-0.8725662622600794 0.35395444370806217 C-0.9019332141482588 98.62853092729507, 0.325013009804608 492.33655166772303, 0.7210538490541238 590.6706141590005 M0.8701977207139135 -0.5058234186843038 C0.6161079387685899 97.94302337649674, -0.21439348651903697 490.78556762904975, -0.15614169284180202 588.9046113007566" stroke="#000000" stroke-width="1" fill="none"></path></g><g transform="translate(1677.804981219078 2879.5556627559504) rotate(0 -0.0011842707731375413 295.0823953701579)"><path d="M-9.799368086063085 560.9287758189876 C-5.1817789035015895 572.8763937193493, -1.8671624467342411 583.6151973014917, 1.064558248897638 589.3114990052632 M-9.686028372288463 559.9500994337413 C-7.43474255328811 570.6115234460192, -3.529324757299009 580.2771843914278, -0.9703050824575166 588.4236311605996" stroke="#000000" stroke-width="1" fill="none"></path></g><g transform="translate(1677.804981219078 2879.5556627559504) rotate(0 -0.0011842707731375413 295.0823953701579)"><path d="M10.721830785758387 560.9487570349555 C7.64849329159943 572.7396690007936, 3.272353437364396 583.470984196718, 1.064558248897638 589.3114990052632 M10.835170499533008 559.9700806497093 C6.0308795576968794 570.4227544642221, 2.8807149343800607 580.0815454837076, -0.9703050824575166 588.4236311605996" stroke="#000000" stroke-width="1" fill="none"></path></g></g><g transform="translate(800.0862739126401 3002.4414594391314) rotate(0 370.8866664341517 160.61636788504484)"><path d="M0 0 C285.77777364227836 0, 571.5555472845567 0, 741.7733328683034 0 M0 0 C220.43137608435512 0, 440.86275216871024 0, 741.7733328683034 0 M741.7733328683034 0 C741.7733328683034 99.24073705184777, 741.7733328683034 198.48147410369555, 741.7733328683034 321.23273577008973 M741.7733328683034 0 C741.7733328683034 90.81081295635238, 741.7733328683034 181.62162591270476, 741.7733328683034 321.23273577008973 M741.7733328683034 321.23273577008973 C451.8144865422125 321.23273577008973, 161.85564021612151 321.23273577008973, 0 321.23273577008973 M741.7733328683034 321.23273577008973 C567.0702902284066 321.23273577008973, 392.36724758850977 321.23273577008973, 0 321.23273577008973 M0 321.23273577008973 C0 237.92258028837614, 0 154.61242480666257, 0 0 M0 321.23273577008973 C0 213.70766370246787, 0 106.182591634846, 0 0" stroke="#000000" stroke-width="2" fill="none"></path></g><g transform="translate(993.1704326738006 3342.6094979435934) rotate(0 173 16)"><text x="0" y="26" font-family="Helvetica, Segoe UI Emoji" font-size="28px" fill="#000000" text-anchor="start" style="white-space: pre;" direction="ltr">square(4) execution context</text></g><g><g transform="translate(804.1520872496935 3059.9356175027465) rotate(0 370.2135358537946 0)"><path d="M0 0 C123.40451195126487 0, 617.0225597563243 0, 740.4270717075892 0 M0 0 C123.40451195126487 0, 617.0225597563243 0, 740.4270717075892 0" stroke="#000000" stroke-width="2" fill="none"></path></g></g><g><g transform="translate(985.3194282095153 3004.806048585337) rotate(0 0 156.68980189732156)"><path d="M0 0 C0 52.229933965773775, 0 261.14966982886887, 0 313.37960379464266 M0 0 C0 52.229933965773775, 0 261.14966982886887, 0 313.37960379464266" stroke="#000000" stroke-width="2" fill="none"></path></g></g><g transform="translate(827.3349834550489 3148.2909467438135) rotate(0 68.99999999999994 23)"><text x="0" y="18" font-family="Helvetica, Segoe UI Emoji" font-size="20px" fill="#000000" text-anchor="start" style="white-space: pre;" direction="ltr">num: undefined</text><text x="0" y="41" font-family="Helvetica, Segoe UI Emoji" font-size="20px" fill="#000000" text-anchor="start" style="white-space: pre;" direction="ltr">ans: undefined</text></g><g transform="translate(854.2316945320582 3019.0256094809797) rotate(0 36 11.5)"><text x="0" y="18" font-family="Helvetica, Segoe UI Emoji" font-size="20px" fill="#000000" text-anchor="start" style="white-space: pre;" direction="ltr">Memory</text></g><g transform="translate(1220.3549157932189 3019.4945774636803) rotate(0 24 11.5)"><text x="0" y="18" font-family="Helvetica, Segoe UI Emoji" font-size="20px" fill="#000000" text-anchor="start" style="white-space: pre;" direction="ltr">Code</text></g><g transform="translate(311.4222593247025 2866.25089067594) rotate(0 21.386222901094015 20.628596714564537)"><path d="M21.386222901094023 0 C25.739375949052977 -0.2633736980422441, 31.622802313137672 1.9850950841542474, 35.133021999911776 4.8261748320299915 C38.64324168668588 7.667254579905736, 41.65183881765095 12.693691780618304, 42.44754102173865 17.046478487254465 C43.243243225826355 21.399265193890628, 42.19836840757427 27.115118682321125, 39.90723522443798 30.94289507184696 C37.616102041301694 34.77067146137279, 33.00666381378271 38.501429865649044, 28.7007419229209 40.013136824409465 C24.394820032059094 41.524843783169885, 18.377625770128954 41.52484378316989, 14.071703879267147 40.01313682440947 C9.76578198840534 38.50142986564905, 5.1563437608863545 34.77067146137279, 2.8652105777500623 30.94289507184696 C0.57407739461377 27.115118682321125, -0.47079742363830646 21.39926519389062, 0.3249047804493941 17.04647848725446 C1.1206069845370945 12.693691780618302, 4.129204115502162 7.667254579905737, 7.639423802276266 4.826174832029993 C11.14964348905037 1.9850950841542496, 19.095089717957727 0.7356004829564501, 21.38622290109402 0 C23.67735608423031 -0.7356004829564501, 21.386222901094023 0.06876198904854885, 21.386222901094023 0.412571934291293" stroke="#000000" stroke-width="1.5" fill="none" stroke-dasharray="3 6"></path></g><g transform="translate(328.55513662456747 2877.658946439163) rotate(0 4.5 9)"><text x="4.5" y="14" font-family="Helvetica, Segoe UI Emoji" font-size="16.135946664847843px" fill="#000000" text-anchor="middle" style="white-space: pre;" direction="ltr">5</text></g><g transform="translate(932.4015920835523 3406.1939610072427) rotate(0 230.5 11.5)"><text x="0" y="18" font-family="Helvetica, Segoe UI Emoji" font-size="20px" fill="#000000" text-anchor="start" style="white-space: pre;" direction="ltr">Once returned, function execution context is deleted</text></g><g transform="translate(403.1512903359852 3592.7773511627697) rotate(0 595.2869960239952 303.8408115931916)"><path d="M0.47379972711205487 0.38662742599844935 C239.69552048302316 2.1711813606879695, 479.1163844579284 3.1468736567161066, 1191.3271178563784 0.535896696895361 M0.3114259075373411 0.03998273499310017 C277.8222880502056 -3.7745085336602084, 556.2340119329862 -3.287710402194296, 1190.2092335754733 -0.05622687451541424 M1190.5987096151066 -0.4583177424967289 C1189.0494126125557 224.0943298491287, 1188.8735833688957 446.7498239678538, 1190.071295126314 607.5985169450083 M1190.6453752571445 0.13888907320797445 C1192.3785736433474 150.04874965928067, 1191.8109693519084 300.71857003844417, 1190.5724085742336 608.0457614666112 M1190.8572362502764 608.1625117341318 C917.2330661472254 611.1424855319941, 644.3104318412934 611.5022613851511, -0.4993239425122738 607.2155941764155 M1190.9059165889125 607.6111380344519 C786.733620656814 607.829311624448, 382.5871620507652 608.4301592859432, 0.03384303562343121 607.7187957650312 M0.19373998418450356 607.7043997565546 C-0.9786292591266066 431.08500056433166, -1.5097090521029861 256.2777740710833, -0.6259886525571347 0.5017524145543576 M-0.28010683543980125 607.444569671739 C0.5436498649296659 479.02279109389315, 0.11144672705506267 350.9113873482006, 0.02891119234263897 0.37216557152569296" stroke="#000000" stroke-width="1" fill="none"></path></g><g><g transform="translate(772.953013271252 3598.398950632633) rotate(0 0.18257016306148444 305.80114501738626)"><path d="M0.7106995906680822 0.5799411389976741 C0.7898036684840917 102.42397613378152, 0.6795944299548865 508.55820204326443, 0.7387205567210913 610.4465619129262 M-0.3753218535706402 -0.1611937083676458 C-0.41270942371338615 101.90450266932982, -0.02723736327141532 510.05071121645653, 0.1785033853724598 611.7634837431408" stroke="#000000" stroke-width="1" fill="none"></path></g></g><g transform="translate(446.2444648616546 3619.627518573478) rotate(0 135.5 32)"><text x="0" y="26" font-family="Helvetica, Segoe UI Emoji" font-size="28px" fill="#000000" text-anchor="start" style="white-space: pre;" direction="ltr">Memory component / </text><text x="0" y="58" font-family="Helvetica, Segoe UI Emoji" font-size="28px" fill="#000000" text-anchor="start" style="white-space: pre;" direction="ltr">Variable Environment</text></g><g transform="translate(1048.04308372326 3631.263382831294) rotate(0 170 16)"><text x="0" y="26" font-family="Helvetica, Segoe UI Emoji" font-size="28px" fill="#000000" text-anchor="start" style="white-space: pre;" direction="ltr">Code / Thread of Execution</text></g><g><g transform="translate(405.56797734770396 3701.676930892118) rotate(0 593.8863956229496 0.432567046629174)"><path d="M-0.4200065162032842 1.065456351265311 C197.51546958764752 1.1306177105754611, 990.1306115294674 1.4399008121341466, 1188.1927977621024 1.129688712581992 M1.5603513334505261 0.5792169903405009 C199.37837034251274 0.27295581148937326, 990.1177599109948 -0.3205744732730092, 1187.7926065605905 -0.3997994620911778" stroke="#000000" stroke-width="1" fill="none"></path></g></g><g transform="translate(457.2911305982615 3863.5340214334033) rotate(0 120 64)"><text x="0" y="26" font-family="Helvetica, Segoe UI Emoji" font-size="28px" fill="#000000" text-anchor="start" style="white-space: pre;" direction="ltr">n: 2</text><text x="0" y="58" font-family="Helvetica, Segoe UI Emoji" font-size="28px" fill="#000000" text-anchor="start" style="white-space: pre;" direction="ltr">square: {...}</text><text x="0" y="90" font-family="Helvetica, Segoe UI Emoji" font-size="28px" fill="#000000" text-anchor="start" style="white-space: pre;" direction="ltr">square2: 4</text><text x="0" y="122" font-family="Helvetica, Segoe UI Emoji" font-size="28px" fill="#000000" text-anchor="start" style="white-space: pre;" direction="ltr">square4: undefined</text></g><g transform="translate(1493.3537459737452 3884.66773351046) rotate(269.733384133158 159.5 16)"><text x="0" y="26" font-family="Helvetica, Segoe UI Emoji" font-size="28px" fill="#000000" text-anchor="start" style="white-space: pre;" direction="ltr">Code Execution Phase(2)</text></g><g><g transform="translate(1675.4181360391092 3605.786515155502) rotate(0 0.9373608747362141 295.5144724174056)"><path d="M1.129688712581992 0.8038450453430415 C0.917160215894008 98.887492497558, -0.27048210690605473 491.191772927317, -0.2097146288625935 589.5454166411287 M0.26363655734807256 0.1802597488090396 C0.3402254195830468 98.94793977114767, 1.9274764604972021 492.69978004993055, 2.084436378335204 590.8486850860021" stroke="#000000" stroke-width="1" fill="none"></path></g><g transform="translate(1675.4181360391092 3605.786515155502) rotate(0 0.9373608747362141 295.5144724174056)"><path d="M-6.9193670840065415 561.3618723961597 C-4.736131119120233 575.0529579387148, 1.5857999151291224 584.6876650861778, 0.11744063802584614 589.9973046129993 M-8.39967601253348 563.3695834723374 C-5.9655638319787005 570.5351944990704, -2.8199634334378745 576.3270212714159, 1.7647513038344642 591.3304538608021" stroke="#000000" stroke-width="1" fill="none"></path></g><g transform="translate(1675.4181360391092 3605.786515155502) rotate(0 0.9373608747362141 295.5144724174056)"><path d="M13.601752603055747 561.3014639935564 C7.807148203825577 575.2092229105779, 6.1507135564849005 584.8674161218405, 0.11744063802584614 589.9973046129993 M12.121443674528809 563.309175069734 C9.412222647785288 570.302796722674, 7.414011824261921 576.1097654280113, 1.7647513038344642 591.3304538608021" stroke="#000000" stroke-width="1" fill="none"></path></g></g><g transform="translate(797.6994287326728 3728.672311838682) rotate(0 370.88666643415166 160.61636788504484)"><path d="M0 0 C287.0373461994546 0, 574.0746923989092 0, 741.7733328683034 0 M0 0 C281.2289014134604 0, 562.4578028269208 0, 741.7733328683034 0 M741.7733328683034 0 C741.7733328683034 69.5466587883833, 741.7733328683034 139.0933175767666, 741.7733328683034 321.23273577008973 M741.7733328683034 0 C741.7733328683034 106.44248841339741, 741.7733328683034 212.88497682679483, 741.7733328683034 321.23273577008973 M741.7733328683034 321.23273577008973 C540.940287745816 321.23273577008973, 340.10724262332855 321.23273577008973, 0 321.23273577008973 M741.7733328683034 321.23273577008973 C456.62742614716063 321.23273577008973, 171.48151942601783 321.23273577008973, 0 321.23273577008973 M0 321.23273577008973 C0 212.60666767034405, 0 103.98059957059834, 0 0 M0 321.23273577008973 C0 217.0541517244852, 0 112.87556767888066, 0 0" stroke="#000000" stroke-width="2" fill="none"></path></g><g transform="translate(990.783587493833 4068.840350343144) rotate(0 173 16)"><text x="0" y="26" font-family="Helvetica, Segoe UI Emoji" font-size="28px" fill="#000000" text-anchor="start" style="white-space: pre;" direction="ltr">square(4) execution context</text></g><g><g transform="translate(801.7652420697262 3786.166469902297) rotate(0 370.21353585379455 0)"><path d="M0 0 C123.40451195126487 0, 617.0225597563243 0, 740.4270717075892 0 M0 0 C123.40451195126487 0, 617.0225597563243 0, 740.4270717075892 0" stroke="#000000" stroke-width="2" fill="none"></path></g></g><g><g transform="translate(982.9325830295477 3731.036900984888) rotate(0 0 156.68980189732156)"><path d="M0 0 C0 52.229933965773775, 0 261.14966982886887, 0 313.37960379464266 M0 0 C0 52.229933965773775, 0 261.14966982886887, 0 313.37960379464266" stroke="#000000" stroke-width="2" fill="none"></path></g></g><g transform="translate(825.3029269190548 3874.1670104993905) rotate(0 33 23)"><text x="0" y="18" font-family="Helvetica, Segoe UI Emoji" font-size="20px" fill="#000000" text-anchor="start" style="white-space: pre;" direction="ltr">num: 4</text><text x="0" y="41" font-family="Helvetica, Segoe UI Emoji" font-size="20px" fill="#000000" text-anchor="start" style="white-space: pre;" direction="ltr">ans: 16</text></g><g transform="translate(851.8448493520907 3745.2564618805304) rotate(0 36 11.5)"><text x="0" y="18" font-family="Helvetica, Segoe UI Emoji" font-size="20px" fill="#000000" text-anchor="start" style="white-space: pre;" direction="ltr">Memory</text></g><g transform="translate(1217.9680706132501 3745.725429863231) rotate(0 24 11.5)"><text x="0" y="18" font-family="Helvetica, Segoe UI Emoji" font-size="20px" fill="#000000" text-anchor="start" style="white-space: pre;" direction="ltr">Code</text></g><g transform="translate(309.0354141447352 3592.4817430754906) rotate(0 21.386222901094015 20.628596714564537)"><path d="M21.386222901094023 0 C25.739375949052977 -0.2633736980422441, 31.622802313137672 1.9850950841542474, 35.133021999911776 4.8261748320299915 C38.64324168668588 7.667254579905736, 41.65183881765095 12.693691780618304, 42.44754102173865 17.046478487254465 C43.243243225826355 21.399265193890628, 42.19836840757427 27.115118682321125, 39.90723522443798 30.94289507184696 C37.616102041301694 34.77067146137279, 33.00666381378271 38.501429865649044, 28.7007419229209 40.013136824409465 C24.394820032059094 41.524843783169885, 18.377625770128954 41.52484378316989, 14.071703879267147 40.01313682440947 C9.76578198840534 38.50142986564905, 5.1563437608863545 34.77067146137279, 2.8652105777500623 30.94289507184696 C0.57407739461377 27.115118682321125, -0.47079742363830646 21.39926519389062, 0.3249047804493941 17.04647848725446 C1.1206069845370945 12.693691780618302, 4.129204115502162 7.667254579905737, 7.639423802276266 4.826174832029993 C11.14964348905037 1.9850950841542496, 19.095089717957727 0.7356004829564501, 21.38622290109402 0 C23.67735608423031 -0.7356004829564501, 21.386222901094023 0.06876198904854885, 21.386222901094023 0.412571934291293" stroke="#000000" stroke-width="1.5" fill="none" stroke-dasharray="3 6"></path></g><g transform="translate(326.1682914446002 3603.889798838715) rotate(0 4.5 9)"><text x="4.5" y="14" font-family="Helvetica, Segoe UI Emoji" font-size="16.135946664847843px" fill="#000000" text-anchor="middle" style="white-space: pre;" direction="ltr">6</text></g><g transform="translate(930.0147469035848 4132.424813406793) rotate(0 230.50000000000006 11.5)"><text x="0" y="18" font-family="Helvetica, Segoe UI Emoji" font-size="20px" fill="#000000" text-anchor="start" style="white-space: pre;" direction="ltr">Once returned, function execution context is deleted</text></g><g transform="translate(1174.1764072342203 3838.1067156110453) rotate(0 108.5 34.5)"><text x="0" y="18" font-family="Helvetica, Segoe UI Emoji" font-size="20px" fill="#000000" text-anchor="start" style="white-space: pre;" direction="ltr">num * num =&gt; 4 * 4 = 16</text><text x="0" y="41" font-family="Helvetica, Segoe UI Emoji" font-size="20px" fill="#000000" text-anchor="start" style="white-space: pre;" direction="ltr"></text><text x="0" y="64" font-family="Helvetica, Segoe UI Emoji" font-size="20px" fill="#000000" text-anchor="start" style="white-space: pre;" direction="ltr">return ans;</text></g><g><g transform="translate(1163.9337488915864 3851.766401018415) rotate(0 -131.30719866071433 28.09779575892844)"><path d="M0 0 C-43.76906622023811 9.365931919642813, -218.84533110119057 46.82965959821407, -262.61439732142867 56.19559151785688" stroke="#000000" stroke-width="2.5" fill="none" stroke-dasharray="12 8"></path></g><g transform="translate(1163.9337488915864 3851.766401018415) rotate(0 -131.30719866071433 28.09779575892844)"><path d="M-237.19470181079714 40.26326337201523 C-246.30413071777275 45.972789298730206, -255.41355962474833 51.68231522544518, -262.61439732142867 56.19559151785688" stroke="#000000" stroke-width="2.5" fill="none"></path></g><g transform="translate(1163.9337488915864 3851.766401018415) rotate(0 -131.30719866071433 28.09779575892844)"><path d="M-232.90067770412583 60.33018539202529 C-243.5489176211783 58.848507968304716, -254.19715753823078 57.36683054458415, -262.61439732142867 56.19559151785688" stroke="#000000" stroke-width="2.5" fill="none"></path></g></g><g transform="translate(388.4927384386648 4290.049690029975) rotate(0 595.2869960239952 303.8408115931916)"><path d="M0.7561892412602902 -0.38913512453436855 C294.5063331105486 0.6637249420293052, 589.6613498741241 1.2725880811818322, 1191.372072935636 -0.637472464889288 M0.05829745419323445 -0.3235886383801699 C322.4970817587772 4.270597838535648, 644.8715704853582 4.265139543190341, 1190.2796979041498 -0.2726173330098391 M1190.4249166017125 0.7791327215731144 C1188.7892609766884 134.68954881083633, 1189.1521473339958 269.79134444721865, 1189.8974868064474 608.0971086615958 M1190.4509918303888 0.25649615041911605 C1191.1538577669794 174.40964361679133, 1191.1722358697589 348.99995653421337, 1190.3499127598207 607.9503039447852 M1190.0315865760397 607.6270866507926 C865.940207903731 603.7319844919185, 542.7614657975843 602.3371595817546, 0.3955845020711422 606.9411226624885 M1190.733068868677 608.078834542472 C937.8837994357717 610.7858067718068, 685.183930713926 610.377468380026, -0.13344626538455487 607.6969468085357 M-0.5349580623209477 607.1209968919196 C1.7770245685994879 473.51709537888036, 0.9432815924108282 338.02259099108517, -0.15071335807442665 0.11549238935112954 M-0.3920412551611662 607.4581953017303 C-0.7216929720787 385.22533705946984, -0.42976826895751474 161.92180735419666, 0.31423822529613976 -0.20662673003971577" stroke="#000000" stroke-width="1" fill="none"></path></g><g><g transform="translate(758.2944613739315 4295.67128949984) rotate(0 0.1551852990006637 305.91042901131095)"><path d="M1.1342838618904352 -0.5837026868015528 C0.9731193516403436 101.25531776921734, 0.08527999855577957 508.80628397697143, 0.08760540224611768 610.8669402514718 M0.27064416004344816 1.7242494572885336 C-0.13315300690010207 103.78229866336943, -0.9335668711550534 511.0390361653597, -0.8144472252018751 612.4045607094228" stroke="#000000" stroke-width="1" fill="none"></path></g></g><g transform="translate(431.58591296433417 4316.899857440685) rotate(0 135.5 32)"><text x="0" y="26" font-family="Helvetica, Segoe UI Emoji" font-size="28px" fill="#000000" text-anchor="start" style="white-space: pre;" direction="ltr">Memory component / </text><text x="0" y="58" font-family="Helvetica, Segoe UI Emoji" font-size="28px" fill="#000000" text-anchor="start" style="white-space: pre;" direction="ltr">Variable Environment</text></g><g transform="translate(1033.3845318259398 4328.535721698501) rotate(0 170 16)"><text x="0" y="26" font-family="Helvetica, Segoe UI Emoji" font-size="28px" fill="#000000" text-anchor="start" style="white-space: pre;" direction="ltr">Code / Thread of Execution</text></g><g><g transform="translate(390.90942545038354 4398.949269759325) rotate(0 593.3021803325335 0.5220404709912145)"><path d="M0.0003718223422766176 1.1482362840324638 C198.10814433103164 1.3331556055694815, 990.36415147957 1.4468322131782767, 1188.0629323653345 1.1971213314682243 M-1.4585717002674938 0.705456387810409 C196.6221993261735 0.5818261013552546, 989.2539083349013 -0.31000408668071033, 1187.5945618305195 -0.2969647182896733" stroke="#000000" stroke-width="1" fill="none"></path></g></g><g transform="translate(442.63257870094105 4561.155045428959) rotate(0 74 64)"><text x="0" y="26" font-family="Helvetica, Segoe UI Emoji" font-size="28px" fill="#000000" text-anchor="start" style="white-space: pre;" direction="ltr">n: 2</text><text x="0" y="58" font-family="Helvetica, Segoe UI Emoji" font-size="28px" fill="#000000" text-anchor="start" style="white-space: pre;" direction="ltr">square: {...}</text><text x="0" y="90" font-family="Helvetica, Segoe UI Emoji" font-size="28px" fill="#000000" text-anchor="start" style="white-space: pre;" direction="ltr">square2: 4</text><text x="0" y="122" font-family="Helvetica, Segoe UI Emoji" font-size="28px" fill="#000000" text-anchor="start" style="white-space: pre;" direction="ltr">square4: 16</text></g><g transform="translate(1478.6951940764245 4581.940072377665) rotate(269.733384133158 159.5 16)"><text x="0" y="26" font-family="Helvetica, Segoe UI Emoji" font-size="28px" fill="#000000" text-anchor="start" style="white-space: pre;" direction="ltr">Code Execution Phase(2)</text></g><g><g transform="translate(1660.7595841417885 4303.058854022709) rotate(0 0.13193704040804732 295.0955763659931)"><path d="M1.1971213314682243 -0.9562086973339319 C1.0450940526223422 97.18172521098913, 0.5137823391438738 491.22084820342366, 0.23607261095717147 589.7412699810094 M0.36647130114957704 1.1561777912266553 C-0.07467547940624314 99.39664465913012, -1.1465202592766568 492.74411984599305, -0.8957380809396547 591.1473614293201" stroke="#000000" stroke-width="1" fill="none"></path></g><g transform="translate(1660.7595841417885 4303.058854022709) rotate(0 0.13193704040804732 295.0955763659931)"><path d="M-12.7354579524277 562.3679039478599 C-7.289810010862266 572.2471424544827, -2.527172301665944 583.5447328707975, -0.6315543268382591 591.5613556577874 M-11.823320122729077 562.1730813300534 C-8.756304063105283 570.9886041125343, -5.2126594544912725 580.679698556203, -1.0012342611834448 590.7412448813258" stroke="#000000" stroke-width="1" fill="none"></path></g><g transform="translate(1660.7595841417885 4303.058854022709) rotate(0 0.13193704040804732 295.0955763659931)"><path d="M7.785747908482433 562.3785058338569 C5.111353940071755 572.4582690961951, 1.75403046086198 583.7516644908623, -0.6315543268382591 591.5613556577874 M8.697885738181055 562.1836832160504 C5.695321833039754 570.8450885097305, 3.1694069757811114 580.5330472323335, -1.0012342611834448 590.7412448813258" stroke="#000000" stroke-width="1" fill="none"></path></g></g><g transform="translate(783.0408768353523 4425.944650705887) rotate(0 370.8866664341517 160.61636788504484)"><path d="M0 0 C279.00978885072493 0, 558.0195777014499 0, 741.7733328683034 0 M0 0 C236.87428930989742 0, 473.74857861979484 0, 741.7733328683034 0 M741.7733328683034 0 C741.7733328683034 86.83163172811875, 741.7733328683034 173.6632634562375, 741.7733328683034 321.23273577008973 M741.7733328683034 0 C741.7733328683034 70.52096349419995, 741.7733328683034 141.0419269883999, 741.7733328683034 321.23273577008973 M741.7733328683034 321.23273577008973 C586.359911119885 321.23273577008973, 430.94648937146667 321.23273577008973, 0 321.23273577008973 M741.7733328683034 321.23273577008973 C545.4238888127734 321.23273577008973, 349.0744447572434 321.23273577008973, 0 321.23273577008973 M0 321.23273577008973 C0 236.2839685263879, 0 151.33520128268606, 0 0 M0 321.23273577008973 C0 237.5570446583751, 0 153.88135354666048, 0 0" stroke="#000000" stroke-width="2" fill="none"></path></g><g transform="translate(976.1250355965128 4766.112689210351) rotate(0 173 16)"><text x="0" y="26" font-family="Helvetica, Segoe UI Emoji" font-size="28px" fill="#000000" text-anchor="start" style="white-space: pre;" direction="ltr">square(4) execution context</text></g><g><g transform="translate(787.1066901724057 4483.438808769502) rotate(0 370.2135358537946 0)"><path d="M0 0 C123.40451195126487 0, 617.0225597563243 0, 740.4270717075892 0 M0 0 C123.40451195126487 0, 617.0225597563243 0, 740.4270717075892 0" stroke="#000000" stroke-width="2" fill="none"></path></g></g><g><g transform="translate(968.2740311322275 4428.309239852095) rotate(0 0 156.68980189732156)"><path d="M0 0 C0 52.229933965773775, 0 261.14966982886887, 0 313.37960379464266 M0 0 C0 52.229933965773775, 0 261.14966982886887, 0 313.37960379464266" stroke="#000000" stroke-width="2" fill="none"></path></g></g><g transform="translate(810.6443750217344 4571.4393493665975) rotate(0 33 23)"><text x="0" y="18" font-family="Helvetica, Segoe UI Emoji" font-size="20px" fill="#000000" text-anchor="start" style="white-space: pre;" direction="ltr">num: 4</text><text x="0" y="41" font-family="Helvetica, Segoe UI Emoji" font-size="20px" fill="#000000" text-anchor="start" style="white-space: pre;" direction="ltr">ans: 16</text></g><g transform="translate(837.18629745477 4442.5288007477375) rotate(0 36 11.5)"><text x="0" y="18" font-family="Helvetica, Segoe UI Emoji" font-size="20px" fill="#000000" text-anchor="start" style="white-space: pre;" direction="ltr">Memory</text></g><g transform="translate(1203.30951871593 4442.997768730436) rotate(0 24 11.5)"><text x="0" y="18" font-family="Helvetica, Segoe UI Emoji" font-size="20px" fill="#000000" text-anchor="start" style="white-space: pre;" direction="ltr">Code</text></g><g transform="translate(294.37686224741503 4289.754081942696) rotate(0 21.386222901094015 20.628596714564537)"><path d="M21.386222901094023 0 C25.739375949052977 -0.2633736980422441, 31.622802313137672 1.9850950841542474, 35.133021999911776 4.8261748320299915 C38.64324168668588 7.667254579905736, 41.65183881765095 12.693691780618304, 42.44754102173865 17.046478487254465 C43.243243225826355 21.399265193890628, 42.19836840757427 27.115118682321125, 39.90723522443798 30.94289507184696 C37.616102041301694 34.77067146137279, 33.00666381378271 38.501429865649044, 28.7007419229209 40.013136824409465 C24.394820032059094 41.524843783169885, 18.377625770128954 41.52484378316989, 14.071703879267147 40.01313682440947 C9.76578198840534 38.50142986564905, 5.1563437608863545 34.77067146137279, 2.8652105777500623 30.94289507184696 C0.57407739461377 27.115118682321125, -0.47079742363830646 21.39926519389062, 0.3249047804493941 17.04647848725446 C1.1206069845370945 12.693691780618302, 4.129204115502162 7.667254579905737, 7.639423802276266 4.826174832029993 C11.14964348905037 1.9850950841542496, 19.095089717957727 0.7356004829564501, 21.38622290109402 0 C23.67735608423031 -0.7356004829564501, 21.386222901094023 0.06876198904854885, 21.386222901094023 0.412571934291293" stroke="#000000" stroke-width="1.5" fill="none" stroke-dasharray="3 6"></path></g><g transform="translate(311.50973954728 4301.162137705922) rotate(0 4.5 9)"><text x="4.5" y="14" font-family="Helvetica, Segoe UI Emoji" font-size="16.135946664847843px" fill="#000000" text-anchor="middle" style="white-space: pre;" direction="ltr">6</text></g><g transform="translate(915.3561950062646 4829.6971522740005) rotate(0 230.50000000000006 11.5)"><text x="0" y="18" font-family="Helvetica, Segoe UI Emoji" font-size="20px" fill="#000000" text-anchor="start" style="white-space: pre;" direction="ltr">Once returned, function execution context is deleted</text></g><g transform="translate(1159.5178553368999 4535.379054478251) rotate(0 108.5 34.5)"><text x="0" y="18" font-family="Helvetica, Segoe UI Emoji" font-size="20px" fill="#000000" text-anchor="start" style="white-space: pre;" direction="ltr">num * num =&gt; 4 * 4 = 16</text><text x="0" y="41" font-family="Helvetica, Segoe UI Emoji" font-size="20px" fill="#000000" text-anchor="start" style="white-space: pre;" direction="ltr"></text><text x="0" y="64" font-family="Helvetica, Segoe UI Emoji" font-size="20px" fill="#000000" text-anchor="start" style="white-space: pre;" direction="ltr">return ans;</text></g><g><g transform="translate(1148.9674490171471 4597.125158121718) rotate(0 -274.2838003976005 36.60683534603004)"><path d="M0 0 C-91.42793346586683 12.20227844867668, -457.13966732933415 61.0113922433834, -548.567600795201 73.21367069206008" stroke="#000000" stroke-width="2.5" fill="none" stroke-dasharray="12 8"></path></g><g transform="translate(1148.9674490171471 4597.125158121718) rotate(0 -274.2838003976005 36.60683534603004)"><path d="M-521.981969531306 59.31387895620246 C-528.0016600126565 62.461159649842784, -534.0213504940072 65.60844034348311, -548.567600795201 73.21367069206008" stroke="#000000" stroke-width="2.5" fill="none"></path></g><g transform="translate(1148.9674490171471 4597.125158121718) rotate(0 -274.2838003976005 36.60683534603004)"><path d="M-519.2672117936515 79.65472684442199 C-525.901595270264 78.19630127516068, -532.5359787468764 76.73787570589936, -548.567600795201 73.21367069206008" stroke="#000000" stroke-width="2.5" fill="none"></path></g></g></svg>